<svg xmlns="http://www.w3.org/2000/svg" style="display: none;">
  <defs>
    <!-- Arch Linux -->
    <symbol id="arch" viewBox="0 0 24 24">
      <path fill="#1793D1" d="M11.39.605c-.553.646-1.738 2.63-1.738 2.63s-2.065 2.133-2.765 5.29c-.7 3.156.374 5.705 1.137 6.896.762 1.19 2.045 1.925 3.512 1.925s2.75-.735 3.512-1.925c.763-1.19 1.837-3.74 1.137-6.896-.7-3.157-2.765-5.29-2.765-5.29S12.553 1.251 11.39.605z"/>
      <path fill="#fff" d="M11.39 2.235s-1.738 2.63-1.738 2.63l1.738 1.565 1.738-1.565s-1.738-2.63-1.738-2.63z"/>
    </symbol>

    <!-- Java -->
    <symbol id="java" viewBox="0 0 24 24">
      <path fill="#007396" d="M10.435 15.789c.64 0 1.155.555 1.155 1.238 0 .684-.516 1.239-1.155 1.239-.64 0-1.155-.555-1.155-1.239 0-.683.516-1.238 1.155-1.238z"/>
      <path fill="#007396" d="M12.017 0C5.396 0 0 5.396 0 12.017s5.396 12.017 12.017 12.017 12.017-5.396 12.017-12.017S18.638 0 12.017 0zm6.432 17.469c-.617.308-1.775.527-2.483.527-1.404 0-1.836-.308-2.483-.957-.308-.308-.527-.527-.957-.957-.308-.308-.957-.617-1.575-.617-.527 0-1.075.129-1.575.617-.308.308-.617.617-.617.957 0 .308.129.617.617.957.957.957 2.354 1.404 3.751 1.404 1.075 0 2.354-.308 3.432-.957.308-.129.617-.527.617-.957 0-.527-.308-.957-.617-.957zm-10.5-3.751c0-.957.617-1.575 1.575-1.575.957 0 1.575.617 1.575 1.575 0 .957-.617 1.575-1.575 1.575-.957 0-1.575-.617-1.575-1.575zm9.663 5.091c-1.404.957-3.432 1.404-5.46 1.404-2.028 0-4.056-.447-5.46-1.404-.308-.308-.527-.527-.527-.957 0-.527.308-.957.617-1.275.308-.308.617-.527 1.075-.527.527 0 1.075.308 1.575.617 1.075.617 2.483 1.075 3.751 1.075 1.275 0 2.683-.458 3.751-1.075.527-.308 1.075-.617 1.575-.617.457 0 .766.219 1.075.527.308.308.617.748.617 1.275 0 .43-.219.649-.527.957z"/>
    </symbol>

    <!-- Python -->
    <symbol id="py" viewBox="0 0 24 24">
      <path fill="#3776AB" d="M11.9 0c-1.1 0-2.1.5-2.8 1.2-.7.7-1.2 1.7-1.2 2.8v3.8h7.9v1.3H5.7c-1.1 0-2.1.5-2.8 1.2-.7.7-1.2 1.7-1.2 2.8v5.7c0 1.1.5 2.1 1.2 2.8.7.7 1.7 1.2 2.8 1.2h3.8v-7.9h-1.3v5.3c0 .7-.6 1.3-1.3 1.3s-1.3-.6-1.3-1.3v-3.8c0-1.1-.5-2.1-1.2-2.8-.7-.7-1.7-1.2-2.8-1.2H0v-1.3h1.9c1.1 0 2.1-.5 2.8-1.2.7-.7 1.2-1.7 1.2-2.8V4c0-1.1.5-2.1 1.2-2.8.7-.7 1.7-1.2 2.8-1.2h7.9V0h-3.8z"/>
      <path fill="#FFD43B" d="M12.1 24c1.1 0 2.1-.5 2.8-1.2.7-.7 1.2-1.7 1.2-2.8v-3.8h-7.9v-1.3h7.9c1.1 0 2.1-.5 2.8-1.2.7-.7 1.2-1.7 1.2-2.8V4c0-1.1-.5-2.1-1.2-2.8-.7-.7-1.7-1.2-2.8-1.2H8.3v7.9h1.3V4.7c0-.7.6-1.3 1.3-1.3s1.3.6 1.3 1.3v3.8c0 1.1.5 2.1 1.2 2.8.7.7 1.7 1.2 2.8 1.2h1.9v1.3h-1.9c-1.1 0-2.1.5-2.8 1.2-.7.7-1.2 1.7-1.2 2.8v5.7c0 1.1-.5 2.1-1.2 2.8-.7.7-1.7 1.2-2.8 1.2H4.2V24h7.9z"/>
    </symbol>

    <!-- PHP -->
    <symbol id="php" viewBox="0 0 24 24">
      <path fill="#777BB4" d="M12 0C5.373 0 0 5.373 0 12s5.373 12 12 12 12-5.373 12-12S18.627 0 12 0zm-1.5 16.5h-3l1-6H4.5l2-3h3l-1 6h3l-2 3zm9 0h-3l1-6h-3l2-3h3l-1 6h3l-2 3z"/>
    </symbol>

    <!-- JavaScript -->
    <symbol id="js" viewBox="0 0 24 24">
      <path fill="#F7DF1E" d="M0 0h24v24H0V0zm12.5 19.5c-1.1 0-2.1-.2-3-.6-.9-.4-1.6-1-2.2-1.8l1.5-1.3c.4.6.9 1 1.5 1.3.6.3 1.3.4 2.1.4.9 0 1.6-.2 2.1-.5.5-.3.8-.7.8-1.2 0-.4-.1-.7-.4-1-.3-.3-.8-.5-1.5-.7l-1.2-.3c-1.2-.3-2.1-.8-2.7-1.5-.6-.7-.9-1.6-.9-2.7 0-1.2.4-2.1 1.2-2.8.8-.7 1.9-1.1 3.3-1.1 1 0 1.9.2 2.7.5.8.3 1.5.8 2.1 1.4l-1.5 1.4c-.4-.4-.8-.7-1.3-.9-.5-.2-1-.3-1.6-.3-.8 0-1.4.2-1.9.5-.5.3-.7.7-.7 1.2 0 .4.1.7.4 1 .3.3.7.5 1.4.7l1.2.3c1.3.3 2.3.8 2.9 1.5.6.7.9 1.6.9 2.7 0 1.2-.4 2.2-1.2 3-.8.8-2 1.2-3.5 1.2z"/>
    </symbol>

    <!-- HTML -->
    <symbol id="html" viewBox="0 0 24 24">
      <path fill="#E34F26" d="M1.5 0h21L19.5 21.75 12 24l-7.5-2.25L1.5 0zm17.25 5.25H7.5l.75 8.25h9l-.75 4.5-4.5 1.5-4.5-1.5-.375-3h2.25l.375 1.5 2.25.75 2.25-.75.375-3.75H6l-.75-7.5h12l-.75 8.25H9l-.375-3h8.25l-.375 3z"/>
    </symbol>

    <!-- CSS -->
    <symbol id="css" viewBox="0 0 24 24">
      <path fill="#1572B6" d="M1.5 0h21l-1.91 21.563L11.977 24l-8.564-2.438L1.5 0zm17.09 4.413L5.41 4.41l.213 2.622 10.125.002-.255 2.716h-6.64l.24 2.573h6.182l-.366 3.523-2.91.804-2.956-.81-.188-2.11h-2.61l.29 3.855L12 19.288l5.373-1.53L18.59 4.414z"/>
    </symbol>

    <!-- Docker -->
    <symbol id="docker" viewBox="0 0 24 24">
      <path fill="#2496ED" d="M4.5 9h-2v2h2V9zm2.5 0h-2v2h2V9zm2.5 0h-2v2h2V9zm2.5 0h-2v2h2V9zm-10 2.5h-2v2h2v-2zm2.5 0h-2v2h2v-2zm2.5 0h-2v2h2v-2zm2.5 0h-2v2h2v-2zm-10 2.5h-2v2h2v-2zm2.5 0h-2v2h2v-2zm2.5 0h-2v2h2v-2zm2.5 0h-2v2h2v-2zM0 6h24v12H0V6zm22.5 10.5h-21V7.5h21v9z"/>
      <path fill="#2496ED" d="M16.5 6h-9v2.25h9V6z"/>
    </symbol>

    <!-- IntelliJ IDEA -->
    <symbol id="idea" viewBox="0 0 24 24">
      <path fill="#000000" d="M0 0v24h24V0H0zm17.5 17.5h-11V19h11v-1.5zm-11-3h11V16h-11v-1.5zm11-3h-11V13h11v-1.5zm-11-3h11V10h-11V8.5zM6 6h12v1.5H6V6z"/>
    </symbol>

    <!-- MySQL -->
    <symbol id="mysql" viewBox="0 0 24 24">
      <path fill="#4479A1" d="M16.5 4.5C14.5 4.5 13 6 13 8s1.5 3.5 3.5 3.5S20 10 20 8s-1.5-3.5-3.5-3.5zm-9 0C5.5 4.5 4 6 4 8s1.5 3.5 3.5 3.5S11 10 11 8S9.5 4.5 7.5 4.5zm9 9c-1.1 0-2.1.4-2.8 1.2-.7.8-1.2 1.8-1.2 2.8v3h8v-3c0-1.1-.4-2.1-1.2-2.8-.7-.8-1.8-1.2-2.8-1.2zm-9 0c-1.1 0-2.1.4-2.8 1.2C4 15.5 3.5 16.5 3.5 17.5v3h8v-3c0-1.1-.4-2.1-1.2-2.8-.7-.8-1.8-1.2-2.8-1.2z"/>
    </symbol>

    <!-- Maven -->
    <symbol id="maven" viewBox="0 0 24 24">
      <path fill="#C71A36" d="M12 2L2 7l10 5 10-5-10-5zM2 17l10 5 10-5M2 12l10 5 10-5"/>
    </symbol>

    <!-- Spring -->
    <symbol id="spring" viewBox="0 0 24 24">
      <path fill="#6DB33F" d="M12 2C6.5 2 2 6.5 2 12s4.5 10 10 10 10-4.5 10-10S17.5 2 12 2zm0 18c-4.4 0-8-3.6-8-8s3.6-8 8-8 8 3.6 8 8-3.6 8-8 8z"/>
      <path fill="#6DB33F" d="M12 6c-3.3 0-6 2.7-6 6s2.7 6 6 6 6-2.7 6-6-2.7-6-6-6zm0 10c-2.2 0-4-1.8-4-4s1.8-4 4-4 4 1.8 4 4-1.8 4-4 4z"/>
    </symbol>

    <!-- Symfony -->
    <symbol id="symfony" viewBox="0 0 24 24">
      <path fill="#000000" d="M12 2C6.5 2 2 6.5 2 12s4.5 10 10 10 10-4.5 10-10S17.5 2 12 2zm0 18c-4.4 0-8-3.6-8-8s3.6-8 8-8 8 3.6 8 8-3.6 8-8 8z"/>
      <path fill="#000000" d="M12 7l-5 5 5 5 5-5-5-5z"/>
    </symbol>

    <!-- Windows -->
    <symbol id="windows" viewBox="0 0 24 24">
      <path fill="#0078D4" d="M0 3.5V11h11V0H3.5C1.6 0 0 1.6 0 3.5zM0 20.5V12h11v11H3.5C1.6 23 0 21.4 0 20.5zM13 12v11h7.5c1.9 0 3.5-1.6 3.5-3.5V12H13zM13 0v11h11V3.5C24 1.6 22.4 0 20.5 0H13z"/>
    </symbol>

    <!-- Linux -->
    <symbol id="linux" viewBox="0 0 24 24">
      <path fill="#FCC624" d="M12 2C6.5 2 2 6.5 2 12s4.5 10 10 10 10-4.5 10-10S17.5 2 12 2zm0 18c-4.4 0-8-3.6-8-8s3.6-8 8-8 8 3.6 8 8-3.6 8-8 8z"/>
      <path fill="#000000" d="M9 9h6v6H9z"/>
    </symbol>

    <!-- Apple -->
    <symbol id="apple" viewBox="0 0 24 24">
      <path fill="#000000" d="M18.7 12.0c0-1.3 1.1-2.4 2.4-2.4 0.2 0 0.4 0 0.6 0.1-0.2-1.2-1.1-2.1-2.3-2.1-0.2 0-0.4 0-0.6 0.1-0.7-0.5-1.6-0.8-2.5-0.8-1.9 0-3.5 1.6-3.5 3.5 0 0.3 0 0.6 0.1 0.9-2.9-0.1-5.4-2.6-5.4-5.5 0-1.2 0.4-2.3 1.1-3.2 0.8 1 2 1.6 3.3 1.6 0.2 0 0.4 0 0.6-0.1-0.2 1.2-1.1 2.1-2.3 2.1-0.2 0-0.4 0-0.6-0.1 0.7 0.5 1.6 0.8 2.5 0.8 1.9 0 3.5-1.6 3.5-3.5 0-0.3 0-0.6-0.1-0.9 2.9 0.1 5.4 2.6 5.4 5.5z"/>
    </symbol>

    <!-- VS Code -->
    <symbol id="vscode" viewBox="0 0 24 24">
      <path fill="#007ACC" d="M23.15 2.587L18.21.21a1.494 1.494 0 0 0-1.705.29l-9.46 8.63-4.12-3.128a.999.999 0 0 0-1.276.057L.327 7.261A1 1 0 0 0 .326 8.74L3.899 12 .326 15.26a1 1 0 0 0 .001 1.479L1.65 17.94a.999.999 0 0 0 1.276.057l4.12-3.128 9.46 8.63a1.492 1.492 0 0 0 1.704.29l4.942-2.377A1.5 1.5 0 0 0 24 19.06V4.94a1.5 1.5 0 0 0-.85-2.353z"/>
    </symbol>

    <!-- AWS -->
    <symbol id="aws" viewBox="0 0 24 24">
      <path fill="#FF9900" d="M18.5 6.5h-13c-.3 0-.5.2-.5.5v10c0 .3.2.5.5.5h13c.3 0 .5-.2.5-.5V7c0-.3-.2-.5-.5-.5zM6 8h2v8H6V8zm3 0h2v8H9V8zm3 0h2v8h-2V8zm3 0h2v8h-2V8z"/>
    </symbol>

    <!-- GitHub -->
    <symbol id="github" viewBox="0 0 24 24">
      <path fill="#181717" d="M12 0C5.37 0 0 5.37 0 12c0 5.31 3.435 9.795 8.205 11.385.6.105.825-.255.825-.57 0-.285-.015-1.23-.015-2.235-3.015.555-3.795-.735-4.035-1.41-.135-.345-.72-1.41-1.23-1.695-.42-.225-1.02-.78-.015-.795.945-.015 1.62.87 1.845 1.23 1.08 1.815 2.805 1.305 3.495.99.105-.78.42-1.305.765-1.605-2.67-.3-5.46-1.335-5.46-5.925 0-1.305.465-2.385 1.23-3.225-.12-.3-.54-1.53.12-3.18 0 0 1.005-.315 3.3 1.23.96-.27 1.98-.405 3-.405s2.04.135 3 .405c2.295-1.56 3.3-1.23 3.3-1.23.66 1.65.24 2.88.12 3.18.765.84 1.23 1.905 1.23 3.225 0 4.605-2.805 5.625-5.475 5.925.435.375.81 1.095.81 2.22 0 1.605-.015 2.895-.015 3.3 0 .315.225.69.825.57A12.02 12.02 0 0024 12c0-6.63-5.37-12-12-12z"/>
    </symbol>

    <!-- Obsidian -->
    <symbol id="obsidian" viewBox="0 0 24 24">
      <path fill="#7C3AED" d="M12 2C6.5 2 2 6.5 2 12s4.5 10 10 10 10-4.5 10-10S17.5 2 12 2zm0 18c-4.4 0-8-3.6-8-8s3.6-8 8-8 8 3.6 8 8-3.6 8-8 8z"/>
      <path fill="#7C3AED" d="M12 7l-5 5 5 5 5-5-5-5z"/>
    </symbol>

    <!-- HTMX -->
    <symbol id="htmx" viewBox="0 0 24 24">
      <path fill="#0D0954" d="M12 2C6.5 2 2 6.5 2 12s4.5 10 10 10 10-4.5 10-10S17.5 2 12 2zm0 18c-4.4 0-8-3.6-8-8s3.6-8 8-8 8 3.6 8 8-3.6 8-8 8z"/>
      <path fill="#0D0954" d="M8 8h8v8H8z"/>
    </symbol>

    <!-- Markdown -->
    <symbol id="md" viewBox="0 0 24 24">
      <path fill="#000000" d="M20.5 3.5h-17c-.3 0-.5.2-.5.5v16c0 .3.2.5.5.5h17c.3 0 .5-.2.5-.5V4c0-.3-.2-.5-.5-.5zM6 7.5h3v3H9v6H7.5v-6H6v-3zm4.5 0h1.5v9H10.5v-9zm3 0h1.5l1.5 3 1.5-3H20v9h-1.5v-4.5l-1.5 3-1.5-3v4.5H13.5v-9z"/>
    </symbol>

    <!-- Notion -->
    <symbol id="notion" viewBox="0 0 24 24">
      <path fill="#000000" d="M4.5 3.5h15c.6 0 1 .4 1 1v15c0 .6-.4 1-1 1h-15c-.6 0-1-.4-1-1v-15c0-.6.4-1 1-1zm7.5 13.5v-9m-3 9v-9m6 9v-9"/>
    </symbol>

    <!-- LinkedIn -->
    <symbol id="linkedin" viewBox="0 0 24 24">
      <path fill="#0077B5" d="M20.5 2h-17c-.3 0-.5.2-.5.5v17c0 .3.2.5.5.5h17c.3 0 .5-.2.5-.5v-17c0-.3-.2-.5-.5-.5zM8 19H5v-9h3v9zM6.5 8.5c-1 0-1.5-.5-1.5-1.5s.5-1.5 1.5-1.5S8 6 8 7s-.5 1.5-1.5 1.5zM19 19h-3v-4.5c0-1.5-1.5-1.5-1.5-1.5s-1.5 0-1.5 1.5V19h-3v-9h3v1.5s1.5-1.5 3-1.5 3 1.5 3 3V19z"/>
    </symbol>

    <!-- Discord -->
    <symbol id="discord" viewBox="0 0 24 24">
      <path fill="#5865F2" d="M18.5 5.5c-1.5-.7-3-.9-3-.9s-.3.5-.7 1c-2-1-4.3-1-6.3 0-.4-.5-.7-1-.7-1s-1.5.2-3 .9c-1.2 1.8-1.5 3.5-1.5 3.5 1.5 2.5 3 3 3 3l.5-.5c-.5-.5-1-1-1-1 1.5-.5 2.5-1 3-1.5.5.5 1 1 1.5 1.5.5.5 1 1 1.5 1.5 0 0 1.5-.5 3-1.5 0 0-.5.5-1 1l.5.5s1.5-.5 3-3c0 0-.3-1.7-1.5-3.5zm-9 5.5c-.8 0-1.5.7-1.5 1.5s.7 1.5 1.5 1.5 1.5-.7 1.5-1.5-.7-1.5-1.5-1.5zm6 0c-.8 0-1.5.7-1.5 1.5s.7 1.5 1.5 1.5 1.5-.7 1.5-1.5-.7-1.5-1.5-1.5z"/>
    </symbol>

    <!-- Email -->
    <symbol id="email" viewBox="0 0 24 24">
      <path fill="#EA4335" d="M20 4H4c-1.1 0-1.99.9-1.99 2L2 18c0 1.1.9 2 2 2h16c1.1 0 2-.9 2-2V6c0-1.1-.9-2-2-2zm0 4l-8 5-8-5V6l8 5 8-5v2z"/>
    </symbol>
  </defs>
</svg>